<svg width="50" height="50" viewBox="0 0 50 50" fill="none" xmlns="http://www.w3.org/2000/svg">
<rect x="0.735294" y="0.735294" width="48.5294" height="48.5294" rx="24.2647" fill="#1B1C22"/>
<rect x="0.735294" y="0.735294" width="48.5294" height="48.5294" rx="24.2647" stroke="#363843" stroke-width="1.47059"/>
<path d="M32.3528 32.3529C36.4137 28.292 36.4137 21.7079 32.3528 17.647C28.2919 13.5861 21.7078 13.5861 17.6469 17.647C13.586 21.7079 13.586 28.292 17.6469 32.3529C21.7078 36.4138 28.2919 36.4138 32.3528 32.3529Z" stroke="black" stroke-width="0.010946" stroke-miterlimit="22.9256"/>
<path fill-rule="evenodd" clip-rule="evenodd" d="M24.9988 32.2968C29.0243 32.2968 32.2891 29.0322 32.2891 25.0064C32.2891 20.9808 29.0243 17.716 24.9988 17.716C20.9731 17.716 17.7083 20.9808 17.7083 25.0064C17.7083 25.9782 17.8986 26.9054 18.2438 27.7532C18.4025 28.1432 18.5941 28.5163 18.815 28.8691L18.2674 29.9171L17.2178 31.9268L17.2179 31.9277L19.6475 31.3925L20.9905 31.0965C22.1406 31.8551 23.5184 32.2968 24.9988 32.2968Z" fill="#1B1C22"/>
<path fill-rule="evenodd" clip-rule="evenodd" d="M25.0011 32.2985C23.5207 32.2985 22.1431 31.8567 20.993 31.0982L19.65 31.3941L17.2428 31.9244C18.1101 32.8956 19.157 33.703 20.3313 34.2944C21.7356 35.0016 23.322 35.3999 25.0013 35.3999C27.9877 35.3999 30.6804 36.6594 32.5772 38.6761C32.3512 36.8385 31.4405 35.2124 30.1082 34.0611C33.267 32.2763 35.4 28.8873 35.4 25.0012C35.4 19.2591 30.7433 14.6024 25.0013 14.6024C19.2592 14.6024 14.6025 19.2591 14.6025 25.0012C14.6025 27.6527 15.5955 30.0729 17.2299 31.9099L18.2699 29.9187L18.8175 28.8707C18.5966 28.5179 18.405 28.1449 18.2462 27.7548C17.9011 26.9071 17.7108 25.9798 17.7108 25.0081C17.7108 21.1632 20.689 18.0124 24.4637 17.7371C24.6412 17.7242 24.8205 17.7176 25.0013 17.7175C25.1883 17.7175 25.3738 17.7246 25.5573 17.7385C29.3232 18.0227 32.2917 21.1695 32.2917 25.0081C32.2917 28.9173 29.2131 32.1089 25.3488 32.2903C25.3487 32.2903 25.3486 32.2903 25.3485 32.2903C25.2334 32.2957 25.1177 32.2984 25.0013 32.2984C25.0012 32.2985 25.0011 32.2985 25.0011 32.2985Z" fill="url(#paint0_linear_1517_10268)"/>
<path fill-rule="evenodd" clip-rule="evenodd" d="M30.1081 34.061C30.1575 34.0331 30.2066 34.0048 30.2554 33.9761C30.3043 33.9475 30.3529 33.9184 30.4012 33.889C30.4496 33.8595 30.4976 33.8297 30.5454 33.7995C30.5933 33.7693 30.6409 33.7388 30.6881 33.7078C30.7354 33.6768 30.7824 33.6455 30.8291 33.6138C30.8759 33.5821 30.9223 33.55 30.9685 33.5176C31.0147 33.4851 31.0606 33.4524 31.1063 33.4193C31.1519 33.3861 31.1974 33.3526 31.2424 33.3187C31.2875 33.2848 31.3323 33.2506 31.3768 33.216C31.4213 33.1814 31.4655 33.1465 31.5094 33.1112C31.5533 33.0759 31.597 33.0403 31.6403 33.0043V33.0042C32.7237 32.1045 33.6216 30.9889 34.2678 29.7236C34.2937 29.673 34.3191 29.6222 34.3442 29.5711C34.3692 29.52 34.3938 29.4687 34.418 29.4171C34.4423 29.3656 34.4661 29.3138 34.4895 29.2618C34.5129 29.2098 34.5359 29.1576 34.5584 29.1051C34.581 29.0527 34.6031 29 34.6249 28.9471V28.947C34.6466 28.8941 34.6679 28.841 34.6888 28.7877V28.7876C34.7096 28.7343 34.7301 28.6808 34.7501 28.627C34.7701 28.5733 34.7897 28.5193 34.8088 28.4651C34.828 28.4109 34.8467 28.3566 34.8649 28.302C34.8832 28.2474 34.901 28.1926 34.9184 28.1377C34.9358 28.0827 34.9527 28.0275 34.9692 27.9721C34.9857 27.9167 35.0017 27.8611 35.0173 27.8053C35.0329 27.7496 35.048 27.6936 35.0626 27.6375C35.0773 27.5814 35.0915 27.5251 35.1053 27.4686C35.119 27.4121 35.1323 27.3555 35.1451 27.2986V27.2986C35.158 27.2417 35.1703 27.1847 35.1822 27.1275C35.1941 27.0703 35.2056 27.0129 35.2165 26.9554C35.2274 26.8979 35.2379 26.8401 35.2479 26.7823V26.7822C35.2579 26.7243 35.2674 26.6663 35.2764 26.6081V26.6081C35.2855 26.5499 35.2941 26.4915 35.3021 26.433C35.3102 26.3745 35.3177 26.3158 35.3248 26.2571C35.3319 26.1982 35.3385 26.1392 35.3447 26.0802C35.3507 26.0211 35.3563 25.9618 35.3614 25.9024C35.3666 25.843 35.3711 25.7834 35.3753 25.7238C35.3794 25.6641 35.3829 25.6043 35.386 25.5443C35.3892 25.4844 35.3917 25.4243 35.3938 25.364C35.3958 25.3038 35.3974 25.2435 35.3984 25.183C35.3995 25.1225 35.4 25.0619 35.4 25.0012C35.4 19.2591 30.7433 14.6024 25.0013 14.6024C19.2592 14.6024 14.6025 19.2591 14.6025 25.0012C14.6025 25.0426 14.6027 25.084 14.6032 25.1253C14.6038 25.1666 14.6045 25.2079 14.6054 25.2491C14.6064 25.2903 14.6076 25.3314 14.609 25.3726C14.6105 25.4137 14.6121 25.4547 14.6141 25.4956C14.616 25.5366 14.6182 25.5775 14.6206 25.6183C14.623 25.6591 14.6256 25.6999 14.6284 25.7406C14.6313 25.7813 14.6344 25.822 14.6377 25.8626C14.6411 25.9031 14.6446 25.9436 14.6484 25.984C14.6522 26.0245 14.6562 26.0648 14.6605 26.1051C14.6647 26.1454 14.6692 26.1857 14.6739 26.2258C14.6786 26.266 14.6836 26.3061 14.6887 26.3461C14.6939 26.3861 14.6993 26.4261 14.7049 26.466C14.7105 26.5058 14.7164 26.5457 14.7225 26.5854C14.7286 26.6252 14.7349 26.6648 14.7414 26.7044C14.7479 26.744 14.7547 26.7834 14.7617 26.8229C14.7686 26.8623 14.7758 26.9017 14.7832 26.9409C14.7906 26.9802 14.7983 27.0194 14.8062 27.0585C14.814 27.0976 14.8221 27.1367 14.8304 27.1756C14.8387 27.2145 14.8472 27.2535 14.8559 27.2923C14.8646 27.3311 14.8736 27.3698 14.8827 27.4084C14.8919 27.447 14.9013 27.4856 14.9109 27.5241C14.9205 27.5625 14.9303 27.6009 14.9403 27.6392C14.9503 27.6775 14.9605 27.7157 14.971 27.7538C14.9814 27.792 14.992 27.83 15.0029 27.868C15.0138 27.9059 15.0249 27.9438 15.0362 27.9815C15.0474 28.0193 15.0589 28.057 15.0706 28.0945C15.0823 28.1321 15.0942 28.1696 15.1064 28.207V28.207C15.1185 28.2444 15.1308 28.2817 15.1433 28.3189C15.1558 28.3561 15.1685 28.3933 15.1815 28.4303C15.1944 28.4673 15.2076 28.5042 15.2209 28.541C15.2342 28.5779 15.2477 28.6147 15.2615 28.6513C15.2753 28.6879 15.2892 28.7244 15.3033 28.7609V28.7609C15.3175 28.7974 15.3318 28.8337 15.3464 28.87C15.3609 28.9062 15.3757 28.9423 15.3906 28.9783V28.9784C15.4055 29.0144 15.4207 29.0503 15.436 29.0862C15.4513 29.122 15.4668 29.1577 15.4825 29.1933C15.4982 29.2289 15.5142 29.2645 15.5303 29.2999C15.5464 29.3353 15.5626 29.3707 15.5791 29.4058C15.5956 29.441 15.6123 29.4761 15.6292 29.5111V29.5111C15.6461 29.5461 15.6631 29.581 15.6803 29.6157V29.6157C15.6975 29.6505 15.715 29.6852 15.7326 29.7197C15.7503 29.7543 15.768 29.7886 15.786 29.823V29.823C15.804 29.8573 15.8222 29.8916 15.8406 29.9257C15.859 29.9597 15.8775 29.9937 15.8962 30.0276V30.0276C15.915 30.0614 15.934 30.0952 15.9531 30.1289C15.9722 30.1625 15.9914 30.196 16.0109 30.2294C16.0304 30.2627 16.0501 30.296 16.0699 30.3292V30.3292C16.0897 30.3623 16.1097 30.3954 16.1299 30.4283C16.15 30.4613 16.1705 30.494 16.191 30.5267C16.2116 30.5594 16.2323 30.5919 16.2531 30.6243V30.6243C16.274 30.6568 16.2951 30.689 16.3164 30.7213C16.3376 30.7535 16.359 30.7855 16.3806 30.8174C16.4021 30.8493 16.4239 30.8812 16.4458 30.9128V30.9129C16.4678 30.9445 16.4899 30.976 16.5122 31.0074V31.0075C16.5344 31.0389 16.5569 31.0702 16.5795 31.1013C16.6021 31.1325 16.6249 31.1636 16.6478 31.1944C16.6707 31.2253 16.6938 31.2561 16.7171 31.2867C16.7404 31.3173 16.7639 31.3478 16.7875 31.3782C16.8111 31.4086 16.8349 31.4388 16.8588 31.4689C16.8828 31.499 16.9068 31.5289 16.9311 31.5587C16.9553 31.5885 16.9798 31.6183 17.0044 31.6478C17.029 31.6774 17.0537 31.7068 17.0786 31.736C17.1035 31.7652 17.1285 31.7944 17.1538 31.8234C17.179 31.8524 17.2043 31.8812 17.2298 31.9099L18.2698 29.9187L18.8174 28.8707C18.5966 28.5179 18.405 28.1448 18.2462 27.7548C17.901 26.9071 17.7108 25.9798 17.7108 25.0081C17.7108 21.1632 20.6889 18.0124 24.4636 17.7371C24.6412 17.7242 24.8204 17.7176 25.0012 17.7175C25.1883 17.7175 25.3737 17.7246 25.5573 17.7385C29.3232 18.0227 32.2916 21.1695 32.2916 25.0081C32.2916 28.9173 29.213 32.1089 25.3488 32.2903C27.1679 32.2904 28.8316 32.9578 30.1081 34.061Z" fill="url(#paint1_linear_1517_10268)"/>
<defs>
<linearGradient id="paint0_linear_1517_10268" x1="30.6251" y1="16.2115" x2="19.5723" y2="38.8732" gradientUnits="userSpaceOnUse">
<stop stop-color="#006AE6"/>
<stop offset="1" stop-color="white"/>
</linearGradient>
<linearGradient id="paint1_linear_1517_10268" x1="35.3288" y1="4.73199" x2="-23.3456" y2="119.887" gradientUnits="userSpaceOnUse">
<stop stop-color="#006AE6"/>
<stop offset="1" stop-color="white"/>
</linearGradient>
</defs>
</svg>
